<svg width="40" height="40" viewBox="0 0 40 40" fill="none" xmlns="http://www.w3.org/2000/svg">
<path d="M16.3921 31.6733C16.3921 30.8908 15.7578 30.2566 14.9755 30.2566H4.2772C3.49492 30.2566 2.86062 30.8909 2.86062 31.6733C2.86062 31.9198 2.92373 32.1515 3.0346 32.3535H1V35.2906H18.2526V32.3535H16.2181C16.3289 32.1515 16.3921 31.9198 16.3921 31.6733Z" fill="white"/>
<path d="M14.5716 7.4523L23.611 13.1924C24.3139 13.5506 25.1873 13.3219 25.6186 12.6424L26.0524 11.9595C26.5106 11.2378 26.2971 10.2814 25.5754 9.82307L16.7855 4.24137C16.064 3.78314 15.1075 3.99663 14.6492 4.71835L14.2154 5.40126C13.7841 6.0807 13.9483 6.96838 14.5716 7.4523Z" fill="white"/>
<path d="M38.996 29.3807L38.9897 29.2441L38.9784 29.1151C38.9726 29.0269 38.9603 28.9485 38.9495 28.8679C38.9061 28.5456 38.8321 28.2714 38.7417 28.0233C38.5583 27.5306 38.299 27.1575 37.9805 26.8779C37.9012 26.8075 37.8164 26.7457 37.7322 26.6829L37.4798 26.4944C37.3122 26.3676 37.1413 26.2461 36.9716 26.1229C36.8021 25.999 36.6306 25.8784 36.459 25.758C36.2878 25.6368 36.116 25.5169 35.9427 25.3992C35.598 25.1608 35.2496 24.9284 34.9003 24.6968L34.3747 24.3524L33.8462 24.0125C33.4929 23.7879 33.1389 23.564 32.7826 23.3438C32.4269 23.1228 32.0697 22.9038 31.7105 22.6883L30.6319 22.043L29.5462 21.4088L28.4545 20.7842L27.3574 20.1679L26.2551 19.5598L25.1476 18.96C24.7771 18.7621 24.407 18.5637 24.034 18.3696C23.6619 18.1744 23.2901 17.9783 22.9154 17.7872L22.576 18.3217L20.8655 17.5155L22.7775 14.5044L13.7382 8.7644L9.03601 16.1694L18.0754 21.9094L19.9874 18.8983L21.4446 20.1036L21.1052 20.6383C21.4377 20.8962 21.7732 21.1489 22.1081 21.4029C22.4423 21.6579 22.7792 21.9085 23.1159 22.1596L24.1297 22.907L25.149 23.6459L26.1733 24.3768L27.203 25.0991L28.2386 25.8122L29.2813 26.5139C29.6293 26.7474 29.9792 26.9775 30.3308 27.2055C30.6816 27.4345 31.0347 27.6594 31.3883 27.8839L31.9206 28.2175L32.4557 28.5467C32.814 28.7641 33.1724 28.9807 33.5347 29.1915C33.7151 29.2982 33.8965 29.4028 34.0791 29.5061C34.261 29.6102 34.4432 29.7142 34.6274 29.8147C34.8112 29.916 34.9938 30.0189 35.1797 30.1166L35.4577 30.2649C35.5504 30.3142 35.6424 30.3649 35.7399 30.4066C36.1284 30.5759 36.5763 30.6519 37.1001 30.6083C37.3632 30.5847 37.6428 30.5351 37.953 30.4373C38.0306 30.4128 38.1067 30.3905 38.1892 30.3584L38.3106 30.3136L38.4371 30.2612C38.6057 30.1909 38.7861 30.102 38.9817 29.9894C39.0004 29.7643 39.0041 29.5633 38.996 29.3807Z" fill="white"/>
<path d="M6.23863 20.8507L15.0284 26.4322C15.7501 26.8904 16.7065 26.6769 17.1648 25.9553L17.5985 25.2723C18.0299 24.5927 17.8656 23.7052 17.2424 23.2213L8.2031 17.4813C7.50013 17.1231 6.6268 17.3518 6.19534 18.0314L5.76173 18.7142C5.30334 19.4359 5.51691 20.3924 6.23863 20.8507Z" fill="white"/>
</svg>
