<svg width="24" height="24" viewBox="0 0 24 24" fill="none" xmlns="http://www.w3.org/2000/svg">
<mask id="path-1-inside-1_1976_35" fill="white">
<path d="M11.4677 22.2017C10.7526 22.2017 10.0452 21.9389 9.35834 21.6836C8.6012 21.4022 7.8185 21.1126 7.04067 21.1803L5.14453 21.3484V13.9639L6.17231 13.8727C6.81701 13.8142 7.35706 14.0669 7.87886 14.31C8.3717 14.5395 8.83801 14.759 9.37392 14.7125L12.797 14.0912C14.0239 13.8821 14.6939 14.5938 15.102 15.2407L18.8486 13.4988C20.2519 12.869 21.8284 13.5013 22.7752 15.0725C23.0212 15.4806 22.8842 16.0229 22.4705 16.2816C21.9845 16.5848 21.5006 16.8881 21.0217 17.1882C16.8521 19.8006 13.2514 22.0567 11.7128 22.191C11.631 22.1983 11.5492 22.2017 11.4677 22.2017ZM7.28064 20.6831C8.0631 20.6831 8.80661 20.9593 9.52798 21.2272C10.2754 21.5052 10.9829 21.7683 11.6702 21.7062C13.0922 21.5821 16.8186 19.2474 20.7634 16.7756C21.2426 16.4753 21.7267 16.1721 22.2127 15.8686C22.4026 15.7501 22.468 15.5055 22.3585 15.3234C21.5449 13.9734 20.2151 13.4178 19.0513 13.9415L14.9061 15.8686L14.7951 15.6746C14.4252 15.0302 13.9078 14.3957 12.8819 14.5707L9.43744 15.1947C8.74869 15.2509 8.20231 14.9971 7.6737 14.751C7.18865 14.5249 6.72988 14.3107 6.21563 14.3575L5.63153 14.4093V20.8164L6.99784 20.6952C7.09251 20.6869 7.18694 20.6831 7.28064 20.6831Z"/>
</mask>
<path d="M11.4677 22.2017C10.7526 22.2017 10.0452 21.9389 9.35834 21.6836C8.6012 21.4022 7.8185 21.1126 7.04067 21.1803L5.14453 21.3484V13.9639L6.17231 13.8727C6.81701 13.8142 7.35706 14.0669 7.87886 14.31C8.3717 14.5395 8.83801 14.759 9.37392 14.7125L12.797 14.0912C14.0239 13.8821 14.6939 14.5938 15.102 15.2407L18.8486 13.4988C20.2519 12.869 21.8284 13.5013 22.7752 15.0725C23.0212 15.4806 22.8842 16.0229 22.4705 16.2816C21.9845 16.5848 21.5006 16.8881 21.0217 17.1882C16.8521 19.8006 13.2514 22.0567 11.7128 22.191C11.631 22.1983 11.5492 22.2017 11.4677 22.2017ZM7.28064 20.6831C8.0631 20.6831 8.80661 20.9593 9.52798 21.2272C10.2754 21.5052 10.9829 21.7683 11.6702 21.7062C13.0922 21.5821 16.8186 19.2474 20.7634 16.7756C21.2426 16.4753 21.7267 16.1721 22.2127 15.8686C22.4026 15.7501 22.468 15.5055 22.3585 15.3234C21.5449 13.9734 20.2151 13.4178 19.0513 13.9415L14.9061 15.8686L14.7951 15.6746C14.4252 15.0302 13.9078 14.3957 12.8819 14.5707L9.43744 15.1947C8.74869 15.2509 8.20231 14.9971 7.6737 14.751C7.18865 14.5249 6.72988 14.3107 6.21563 14.3575L5.63153 14.4093V20.8164L6.99784 20.6952C7.09251 20.6869 7.18694 20.6831 7.28064 20.6831Z" fill="white"/>
<path d="M9.35834 21.6836L9.88099 20.2776L9.88082 20.2775L9.35834 21.6836ZM7.04067 21.1803L6.91069 19.6859L6.90816 19.6861L7.04067 21.1803ZM5.14453 21.3484H3.64453V22.9874L5.27705 22.8426L5.14453 21.3484ZM5.14453 13.9639L5.01185 12.4698L3.64453 12.5912V13.9639H5.14453ZM6.17231 13.8727L6.30499 15.3668L6.30765 15.3665L6.17231 13.8727ZM7.87886 14.31L7.24533 15.6697L7.24564 15.6698L7.87886 14.31ZM9.37392 14.7125L9.50354 16.2069L9.57311 16.2009L9.64182 16.1884L9.37392 14.7125ZM12.797 14.0912L12.545 12.6125L12.5371 12.6139L12.5291 12.6153L12.797 14.0912ZM15.102 15.2407L13.8334 16.0411L14.5376 17.1573L15.7344 16.6009L15.102 15.2407ZM18.8486 13.4988L18.2343 12.1304L18.2252 12.1344L18.2162 12.1386L18.8486 13.4988ZM22.7752 15.0725L21.4904 15.8466L21.4906 15.8469L22.7752 15.0725ZM22.4705 16.2816L23.2645 17.5542L23.2657 17.5534L22.4705 16.2816ZM21.0217 17.1882L20.2253 15.917L20.2252 15.9171L21.0217 17.1882ZM11.7128 22.191L11.5823 20.6967L11.5794 20.697L11.7128 22.191ZM9.52798 21.2272L10.0508 19.8213L10.0503 19.8211L9.52798 21.2272ZM11.6702 21.7062L11.5397 20.2119L11.5353 20.2123L11.6702 21.7062ZM20.7634 16.7756L21.5599 18.0467L21.56 18.0467L20.7634 16.7756ZM22.2127 15.8686L21.4183 14.5962L21.4183 14.5963L22.2127 15.8686ZM22.3585 15.3234L23.6438 14.5502L23.6432 14.5492L22.3585 15.3234ZM19.0513 13.9415L18.4357 12.5737L18.4273 12.5774L18.4189 12.5813L19.0513 13.9415ZM14.9061 15.8686L13.6041 16.6135L14.2886 17.8098L15.5384 17.2288L14.9061 15.8686ZM14.7951 15.6746L16.0971 14.9297L16.096 14.9279L14.7951 15.6746ZM12.8819 14.5707L12.6297 13.092L12.6221 13.0933L12.6146 13.0947L12.8819 14.5707ZM9.43744 15.1947L9.55947 16.6897L9.63262 16.6837L9.70483 16.6707L9.43744 15.1947ZM7.6737 14.751L7.03996 16.1106L7.0407 16.1109L7.6737 14.751ZM6.21563 14.3575L6.34823 15.8516L6.35137 15.8513L6.21563 14.3575ZM5.63153 14.4093L5.49892 12.9152L4.13153 13.0365V14.4093H5.63153ZM5.63153 20.8164H4.13153V22.4554L5.76407 22.3106L5.63153 20.8164ZM6.99784 20.6952L6.86723 19.2009L6.8653 19.2011L6.99784 20.6952ZM11.4677 22.2017V20.7017C11.0705 20.7017 10.6218 20.553 9.88099 20.2776L9.35834 21.6836L8.8357 23.0896C9.46848 23.3248 10.4348 23.7017 11.4677 23.7017V22.2017ZM9.35834 21.6836L9.88082 20.2775C9.19488 20.0226 8.0851 19.5838 6.91069 19.6859L7.04067 21.1803L7.17066 22.6746C7.55191 22.6415 8.00753 22.7818 8.83587 23.0896L9.35834 21.6836ZM7.04067 21.1803L6.90816 19.6861L5.01201 19.8543L5.14453 21.3484L5.27705 22.8426L7.17319 22.6744L7.04067 21.1803ZM5.14453 21.3484H6.64453V13.9639H5.14453H3.64453V21.3484H5.14453ZM5.14453 13.9639L5.27721 15.458L6.30499 15.3668L6.17231 13.8727L6.03963 12.3785L5.01185 12.4698L5.14453 13.9639ZM6.17231 13.8727L6.30765 15.3665C6.49111 15.3499 6.67469 15.4038 7.24533 15.6697L7.87886 14.31L8.51239 12.9504C8.03944 12.73 7.14291 12.2786 6.03696 12.3788L6.17231 13.8727ZM7.87886 14.31L7.24564 15.6698C7.66716 15.8661 8.50113 16.2939 9.50354 16.2069L9.37392 14.7125L9.2443 13.2182C9.22572 13.2198 9.17862 13.2214 9.06372 13.185C8.92782 13.1419 8.77857 13.0743 8.51209 12.9502L7.87886 14.31ZM9.37392 14.7125L9.64182 16.1884L13.0649 15.5671L12.797 14.0912L12.5291 12.6153L9.10603 13.2367L9.37392 14.7125ZM12.797 14.0912L13.049 15.5699C13.1913 15.5456 13.2794 15.5539 13.3286 15.5636C13.3773 15.5731 13.4185 15.59 13.461 15.6166C13.5603 15.6787 13.6848 15.8055 13.8334 16.0411L15.102 15.2407L16.3706 14.4403C16.1111 14.0289 15.6966 13.4765 15.0521 13.0733C14.3657 12.6439 13.5183 12.4467 12.545 12.6125L12.797 14.0912ZM15.102 15.2407L15.7344 16.6009L19.4809 14.859L18.8486 13.4988L18.2162 12.1386L14.4696 13.8805L15.102 15.2407ZM18.8486 13.4988L19.4628 14.8673C19.9924 14.6296 20.8231 14.7393 21.4904 15.8466L22.7752 15.0725L24.06 14.2984C22.8338 12.2633 20.5113 11.1084 18.2343 12.1304L18.8486 13.4988ZM22.7752 15.0725L21.4906 15.8469C21.2961 15.5243 21.4241 15.1667 21.6752 15.0098L22.4705 16.2816L23.2657 17.5534C24.3443 16.879 24.7464 15.437 24.0598 14.2981L22.7752 15.0725ZM22.4705 16.2816L21.6764 15.009C21.189 15.3131 20.7038 15.6172 20.2253 15.917L21.0217 17.1882L21.818 18.4593C22.2974 18.159 22.7799 17.8565 23.2645 17.5542L22.4705 16.2816ZM21.0217 17.1882L20.2252 15.9171C18.1302 17.2297 16.2213 18.4253 14.6454 19.3114C13.8582 19.754 13.1823 20.1033 12.6281 20.3461C12.0418 20.6029 11.7132 20.6853 11.5823 20.6967L11.7128 22.191L11.8432 23.6853C12.4817 23.6296 13.1801 23.3795 13.832 23.0939C14.516 22.7943 15.2893 22.3911 16.1158 21.9263C17.7673 20.9977 19.7436 19.7591 21.8181 18.4593L21.0217 17.1882ZM11.7128 22.191L11.5794 20.697C11.5446 20.7001 11.5075 20.7017 11.4677 20.7017V22.2017V23.7017C11.591 23.7017 11.7173 23.6966 11.8462 23.6851L11.7128 22.191ZM7.28064 20.6831V22.1831C7.74802 22.1831 8.23764 22.3481 9.00566 22.6334L9.52798 21.2272L10.0503 19.8211C9.37559 19.5705 8.37817 19.1831 7.28064 19.1831V20.6831ZM9.52798 21.2272L9.00516 22.6332C9.66628 22.879 10.7133 23.2987 11.8051 23.2001L11.6702 21.7062L11.5353 20.2123C11.2524 20.2378 10.8845 20.1313 10.0508 19.8213L9.52798 21.2272ZM11.6702 21.7062L11.8006 23.2005C12.4259 23.1459 13.1225 22.8821 13.7518 22.5989C14.4235 22.2966 15.1915 21.8903 16.0103 21.4263C17.6477 20.4983 19.5965 19.2769 21.5599 18.0467L20.7634 16.7756L19.967 15.5045C17.9855 16.7461 16.0987 17.9279 14.5312 18.8163C13.7475 19.2604 13.0707 19.6156 12.5206 19.8632C11.928 20.1299 11.6255 20.2044 11.5397 20.2119L11.6702 21.7062ZM20.7634 16.7756L21.56 18.0467C22.0391 17.7464 22.5223 17.4437 23.0072 17.1409L22.2127 15.8686L21.4183 14.5963C20.9311 14.9005 20.4461 15.2043 19.9669 15.5046L20.7634 16.7756ZM22.2127 15.8686L23.0071 17.1409C23.8292 16.6277 24.2123 15.4951 23.6438 14.5502L22.3585 15.3234L21.0732 16.0967C20.7238 15.5159 20.9759 14.8724 21.4183 14.5962L22.2127 15.8686ZM22.3585 15.3234L23.6432 14.5492C22.5726 12.7727 20.5065 11.6418 18.4357 12.5737L19.0513 13.9415L19.6669 15.3094C19.9237 15.1938 20.5172 15.1741 21.0738 16.0977L22.3585 15.3234ZM19.0513 13.9415L18.4189 12.5813L14.2738 14.5084L14.9061 15.8686L15.5384 17.2288L19.6836 15.3017L19.0513 13.9415ZM14.9061 15.8686L16.2081 15.1237L16.0971 14.9297L14.7951 15.6746L13.4932 16.4195L13.6041 16.6135L14.9061 15.8686ZM14.7951 15.6746L16.096 14.9279C15.8818 14.5546 15.5296 14.0047 14.9571 13.5953C14.322 13.141 13.5299 12.9385 12.6297 13.092L12.8819 14.5707L13.1342 16.0493C13.2184 16.0349 13.2436 16.0447 13.2305 16.0417C13.2162 16.0385 13.2068 16.0318 13.2119 16.0354C13.2221 16.0427 13.2549 16.0692 13.3079 16.1361C13.3616 16.2041 13.422 16.2956 13.4942 16.4214L14.7951 15.6746ZM12.8819 14.5707L12.6146 13.0947L9.17005 13.7187L9.43744 15.1947L9.70483 16.6707L13.1493 16.0466L12.8819 14.5707ZM9.43744 15.1947L9.31541 13.6996C9.07219 13.7195 8.86468 13.6508 8.30669 13.3911L7.6737 14.751L7.0407 16.1109C7.53993 16.3433 8.42519 16.7823 9.55947 16.6897L9.43744 15.1947ZM7.6737 14.751L8.30743 13.3914C7.89613 13.1997 7.06526 12.7741 6.07989 12.8636L6.21563 14.3575L6.35137 15.8513C6.35418 15.8511 6.39112 15.8465 6.50229 15.8818C6.63286 15.9232 6.77931 15.9891 7.03996 16.1106L7.6737 14.751ZM6.21563 14.3575L6.08302 12.8633L5.49892 12.9152L5.63153 14.4093L5.76413 15.9034L6.34823 15.8516L6.21563 14.3575ZM5.63153 14.4093H4.13153V20.8164H5.63153H7.13153V14.4093H5.63153ZM5.63153 20.8164L5.76407 22.3106L7.13038 22.1894L6.99784 20.6952L6.8653 19.2011L5.49899 19.3223L5.63153 20.8164ZM6.99784 20.6952L7.12845 22.1895C7.17764 22.1852 7.22843 22.1831 7.28064 22.1831V20.6831V19.1831C7.14546 19.1831 7.00739 19.1887 6.86723 19.2009L6.99784 20.6952Z" fill="white" mask="url(#path-1-inside-1_1976_35)"/>
<mask id="path-3-inside-2_1976_35" fill="white">
<path d="M10.5165 18.6083C10.4028 18.6083 10.3011 18.5285 10.2782 18.4127C10.2519 18.2807 10.3373 18.1527 10.469 18.1262C11.8251 17.8551 13.3496 17.235 15.1238 16.2325L14.8038 15.6749C14.7368 15.5583 14.7772 15.4094 14.8936 15.3427C15.0104 15.2763 15.1591 15.3159 15.2258 15.4325L15.6673 16.2018C15.734 16.3184 15.694 16.4671 15.5777 16.5338C13.6662 17.6341 12.0266 18.3112 10.5644 18.6035C10.5483 18.6069 10.5323 18.6083 10.5165 18.6083Z"/>
</mask>
<path d="M10.5165 18.6083C10.4028 18.6083 10.3011 18.5285 10.2782 18.4127C10.2519 18.2807 10.3373 18.1527 10.469 18.1262C11.8251 17.8551 13.3496 17.235 15.1238 16.2325L14.8038 15.6749C14.7368 15.5583 14.7772 15.4094 14.8936 15.3427C15.0104 15.2763 15.1591 15.3159 15.2258 15.4325L15.6673 16.2018C15.734 16.3184 15.694 16.4671 15.5777 16.5338C13.6662 17.6341 12.0266 18.3112 10.5644 18.6035C10.5483 18.6069 10.5323 18.6083 10.5165 18.6083Z" fill="white"/>
<path d="M10.2782 18.4127L11.7498 18.122L11.7493 18.1195L10.2782 18.4127ZM10.469 18.1262L10.1749 16.6553L10.1727 16.6557L10.469 18.1262ZM15.1238 16.2325L15.8617 17.5384L17.1765 16.7955L16.4247 15.4858L15.1238 16.2325ZM14.8038 15.6749L16.1047 14.9282L16.1046 14.9281L14.8038 15.6749ZM14.8936 15.3427L14.152 14.0388L14.1476 14.0413L14.8936 15.3427ZM15.2258 15.4325L13.9237 16.1773L13.9248 16.1791L15.2258 15.4325ZM15.6673 16.2018L16.9693 15.457L16.9683 15.4552L15.6673 16.2018ZM15.5777 16.5338L14.8317 15.2324L14.8294 15.2338L15.5777 16.5338ZM10.5644 18.6035L10.2704 17.1326L10.2617 17.1343L10.2531 17.1361L10.5644 18.6035ZM10.5165 18.6083V17.1083C11.1012 17.1083 11.6304 17.5176 11.7498 18.122L10.2782 18.4127L8.80661 18.7033C8.97173 19.5394 9.70439 20.1083 10.5165 20.1083V18.6083ZM10.2782 18.4127L11.7493 18.1195C11.8848 18.7995 11.4439 19.4599 10.7653 19.5967L10.469 18.1262L10.1727 16.6557C9.23079 16.8455 8.61906 17.762 8.80711 18.7058L10.2782 18.4127ZM10.469 18.1262L10.7631 19.5971C12.3298 19.2839 14.0082 18.5857 15.8617 17.5384L15.1238 16.2325L14.3859 14.9265C12.691 15.8842 11.3204 16.4263 10.1749 16.6553L10.469 18.1262ZM15.1238 16.2325L16.4247 15.4858L16.1047 14.9282L14.8038 15.6749L13.5028 16.4216L13.8229 16.9792L15.1238 16.2325ZM14.8038 15.6749L16.1046 14.9281C16.45 15.5296 16.243 16.2982 15.6395 16.6441L14.8936 15.3427L14.1476 14.0413C13.3115 14.5206 13.0237 15.5871 13.5029 16.4218L14.8038 15.6749ZM14.8936 15.3427L15.6351 16.6466C15.0431 16.9833 14.2733 16.7885 13.9238 16.1773L15.2258 15.4325L16.5278 14.6877C16.0448 13.8434 14.9777 13.5692 14.152 14.0388L14.8936 15.3427ZM15.2258 15.4325L13.9248 16.1791L14.3663 16.9484L15.6673 16.2018L16.9683 15.4552L16.5268 14.6859L15.2258 15.4325ZM15.6673 16.2018L14.3652 16.9466C14.024 16.35 14.2243 15.5806 14.8317 15.2324L15.5777 16.5338L16.3237 17.8351C17.1637 17.3536 17.4439 16.2868 16.9693 15.457L15.6673 16.2018ZM15.5777 16.5338L14.8294 15.2338C12.9979 16.288 11.5159 16.8836 10.2704 17.1326L10.5644 18.6035L10.8584 20.0744C12.5373 19.7388 14.3345 18.9802 16.326 17.8338L15.5777 16.5338ZM10.5644 18.6035L10.2531 17.1361C10.3509 17.1154 10.4401 17.1083 10.5165 17.1083V18.6083V20.1083C10.6245 20.1083 10.7458 20.0984 10.8757 20.0708L10.5644 18.6035Z" fill="white" mask="url(#path-3-inside-2_1976_35)"/>
<mask id="path-5-inside-3_1976_35" fill="white">
<path d="M4.7806 22.2023H1.85668C1.38429 22.2023 1 21.8181 1 21.3457V13.4858C1 13.0134 1.38429 12.6289 1.85668 12.6289H4.7806C5.253 12.6289 5.63729 13.0132 5.63729 13.4858V21.3457C5.63729 21.8181 5.253 22.2023 4.7806 22.2023ZM1.85668 13.1159C1.65273 13.1159 1.48675 13.2819 1.48675 13.4858V21.3457C1.48675 21.5496 1.65273 21.7156 1.85668 21.7156H4.7806C4.98455 21.7156 5.15054 21.5496 5.15054 21.3457V13.4858C5.15054 13.2816 4.98455 13.1157 4.7806 13.1157L1.85668 13.1159Z"/>
</mask>
<path d="M4.7806 22.2023H1.85668C1.38429 22.2023 1 21.8181 1 21.3457V13.4858C1 13.0134 1.38429 12.6289 1.85668 12.6289H4.7806C5.253 12.6289 5.63729 13.0132 5.63729 13.4858V21.3457C5.63729 21.8181 5.253 22.2023 4.7806 22.2023ZM1.85668 13.1159C1.65273 13.1159 1.48675 13.2819 1.48675 13.4858V21.3457C1.48675 21.5496 1.65273 21.7156 1.85668 21.7156H4.7806C4.98455 21.7156 5.15054 21.5496 5.15054 21.3457V13.4858C5.15054 13.2816 4.98455 13.1157 4.7806 13.1157L1.85668 13.1159Z" fill="white"/>
<path d="M1.85668 13.1159L1.85668 14.6159L1.85681 14.6159L1.85668 13.1159ZM4.7806 13.1157L4.7806 11.6157L4.78048 11.6157L4.7806 13.1157ZM4.7806 22.2023V20.7023H1.85668V22.2023V23.7023H4.7806V22.2023ZM1.85668 22.2023V20.7023C2.21272 20.7023 2.5 20.9896 2.5 21.3457H1H-0.5C-0.5 22.6465 0.555865 23.7023 1.85668 23.7023V22.2023ZM1 21.3457H2.5V13.4858H1H-0.5V21.3457H1ZM1 13.4858H2.5C2.5 13.8413 2.21327 14.1289 1.85668 14.1289V12.6289V11.1289C0.555309 11.1289 -0.5 12.1856 -0.5 13.4858H1ZM1.85668 12.6289V14.1289H4.7806V12.6289V11.1289H1.85668V12.6289ZM4.7806 12.6289V14.1289C4.42429 14.1289 4.13729 13.8413 4.13729 13.4858H5.63729H7.13729C7.13729 12.185 6.0817 11.1289 4.7806 11.1289V12.6289ZM5.63729 13.4858H4.13729V21.3457H5.63729H7.13729V13.4858H5.63729ZM5.63729 21.3457H4.13729C4.13729 20.9896 4.42457 20.7023 4.7806 20.7023V22.2023V23.7023C6.08142 23.7023 7.13729 22.6465 7.13729 21.3457H5.63729ZM1.85668 13.1159V11.6159C0.824307 11.6159 -0.0132478 12.4535 -0.0132478 13.4858H1.48675H2.98675C2.98675 14.1103 2.48116 14.6159 1.85668 14.6159V13.1159ZM1.48675 13.4858H-0.0132478V21.3457H1.48675H2.98675V13.4858H1.48675ZM1.48675 21.3457H-0.0132478C-0.0132478 22.378 0.824312 23.2156 1.85668 23.2156V21.7156V20.2156C2.48116 20.2156 2.98675 20.7212 2.98675 21.3457H1.48675ZM1.85668 21.7156V23.2156H4.7806V21.7156V20.2156H1.85668V21.7156ZM4.7806 21.7156V23.2156C5.81298 23.2156 6.65054 22.378 6.65054 21.3457H5.15054H3.65054C3.65054 20.7212 4.15613 20.2156 4.7806 20.2156V21.7156ZM5.15054 21.3457H6.65054V13.4858H5.15054H3.65054V21.3457H5.15054ZM5.15054 13.4858H6.65054C6.65054 12.4539 5.81362 11.6157 4.7806 11.6157V13.1157V14.6157C4.15548 14.6157 3.65054 14.1094 3.65054 13.4858H5.15054ZM4.7806 13.1157L4.78048 11.6157L1.85656 11.6159L1.85668 13.1159L1.85681 14.6159L4.78073 14.6157L4.7806 13.1157Z" fill="white" mask="url(#path-5-inside-3_1976_35)"/>
<mask id="path-7-inside-4_1976_35" fill="white">
<path d="M7.84504 8.07241C7.04312 8.07241 6.39062 7.41992 6.39062 6.61799V5.99738C6.39062 5.19546 7.04312 4.54297 7.84504 4.54297C8.64696 4.54297 9.29946 5.19546 9.29946 5.99738V6.61799C9.29946 7.42016 8.64696 8.07241 7.84504 8.07241ZM7.84504 5.02996C7.31156 5.02996 6.87738 5.46415 6.87738 5.99763V6.61824C6.87738 7.15172 7.31132 7.5859 7.84504 7.5859C8.37876 7.5859 8.8127 7.15196 8.8127 6.61824V5.99763C8.8127 5.4639 8.37852 5.02996 7.84504 5.02996Z"/>
</mask>
<path d="M7.84504 8.07241C7.04312 8.07241 6.39062 7.41992 6.39062 6.61799V5.99738C6.39062 5.19546 7.04312 4.54297 7.84504 4.54297C8.64696 4.54297 9.29946 5.19546 9.29946 5.99738V6.61799C9.29946 7.42016 8.64696 8.07241 7.84504 8.07241ZM7.84504 5.02996C7.31156 5.02996 6.87738 5.46415 6.87738 5.99763V6.61824C6.87738 7.15172 7.31132 7.5859 7.84504 7.5859C8.37876 7.5859 8.8127 7.15196 8.8127 6.61824V5.99763C8.8127 5.4639 8.37852 5.02996 7.84504 5.02996Z" fill="white"/>
<path d="M7.84504 8.07241V6.57241C7.84965 6.57241 7.85724 6.57364 7.86468 6.57679C7.8711 6.57951 7.87517 6.58266 7.87777 6.58526C7.88037 6.58786 7.88352 6.59193 7.88624 6.59835C7.8894 6.6058 7.89062 6.61338 7.89062 6.61799H6.39062H4.89062C4.89062 8.24834 6.21469 9.57241 7.84504 9.57241V8.07241ZM6.39062 6.61799H7.89062V5.99738H6.39062H4.89062V6.61799H6.39062ZM6.39062 5.99738H7.89062C7.89062 6.002 7.8894 6.00958 7.88624 6.01702C7.88352 6.02345 7.88037 6.02752 7.87777 6.03012C7.87517 6.03271 7.8711 6.03587 7.86468 6.03859C7.85724 6.04174 7.84965 6.04297 7.84504 6.04297V4.54297V3.04297C6.21469 3.04297 4.89062 4.36703 4.89062 5.99738H6.39062ZM7.84504 4.54297V6.04297C7.84043 6.04297 7.83284 6.04174 7.8254 6.03859C7.81898 6.03587 7.81491 6.03271 7.81231 6.03012C7.80971 6.02752 7.80656 6.02345 7.80384 6.01702C7.80069 6.00958 7.79946 6.002 7.79946 5.99738H9.29946H10.7995C10.7995 4.36703 9.47539 3.04297 7.84504 3.04297V4.54297ZM9.29946 5.99738H7.79946V6.61799H9.29946H10.7995V5.99738H9.29946ZM9.29946 6.61799H7.79946C7.79946 6.6135 7.80066 6.60595 7.80382 6.59849C7.80656 6.59204 7.80973 6.58793 7.81237 6.58529C7.81501 6.58266 7.81911 6.57949 7.82553 6.57677C7.83297 6.57362 7.84051 6.57241 7.84504 6.57241V8.07241V9.57241C9.47523 9.57241 10.7995 8.24875 10.7995 6.61799H9.29946ZM7.84504 5.02996V3.52996C6.48313 3.52996 5.37738 4.63572 5.37738 5.99763H6.87738H8.37738C8.37738 6.29257 8.13999 6.52996 7.84504 6.52996V5.02996ZM6.87738 5.99763H5.37738V6.61824H6.87738H8.37738V5.99763H6.87738ZM6.87738 6.61824H5.37738C5.37738 7.9799 6.48264 9.0859 7.84504 9.0859V7.5859V6.0859C8.13999 6.0859 8.37738 6.32354 8.37738 6.61824H6.87738ZM7.84504 7.5859V9.0859C9.20719 9.0859 10.3127 7.98039 10.3127 6.61824H8.8127H7.3127C7.3127 6.32353 7.55034 6.0859 7.84504 6.0859V7.5859ZM8.8127 6.61824H10.3127V5.99763H8.8127H7.3127V6.61824H8.8127ZM8.8127 5.99763H10.3127C10.3127 4.63523 9.2067 3.52996 7.84504 3.52996V5.02996V6.52996C7.55034 6.52996 7.3127 6.29258 7.3127 5.99763H8.8127Z" fill="white" mask="url(#path-7-inside-4_1976_35)"/>
<mask id="path-9-inside-5_1976_35" fill="white">
<path d="M10.2936 12.9757C10.1593 12.9757 10.0503 12.8669 10.0503 12.7324V9.705C10.0503 9.1888 9.63044 8.76898 9.11424 8.76898H8.9558C8.72484 8.98899 8.31329 9.12139 7.84065 9.12139C7.36801 9.12139 6.95647 8.98899 6.72575 8.76898H6.56731C6.05111 8.76898 5.63128 9.1888 5.63128 9.705V11.6961C5.63128 11.8304 5.52225 11.9394 5.38791 11.9394C5.25356 11.9394 5.14453 11.8304 5.14453 11.6961V9.705C5.14453 8.9206 5.78291 8.28223 6.56731 8.28223H6.83453C6.9129 8.28223 6.9864 8.31995 7.03216 8.38347C7.11977 8.50516 7.43275 8.63464 7.84065 8.63464C8.24855 8.63464 8.56177 8.50516 8.64939 8.38347C8.69514 8.31995 8.76864 8.28223 8.84701 8.28223H9.11424C9.89864 8.28223 10.537 8.9206 10.537 9.705V12.7324C10.537 12.8667 10.4282 12.9757 10.2936 12.9757Z"/>
</mask>
<path d="M10.2936 12.9757C10.1593 12.9757 10.0503 12.8669 10.0503 12.7324V9.705C10.0503 9.1888 9.63044 8.76898 9.11424 8.76898H8.9558C8.72484 8.98899 8.31329 9.12139 7.84065 9.12139C7.36801 9.12139 6.95647 8.98899 6.72575 8.76898H6.56731C6.05111 8.76898 5.63128 9.1888 5.63128 9.705V11.6961C5.63128 11.8304 5.52225 11.9394 5.38791 11.9394C5.25356 11.9394 5.14453 11.8304 5.14453 11.6961V9.705C5.14453 8.9206 5.78291 8.28223 6.56731 8.28223H6.83453C6.9129 8.28223 6.9864 8.31995 7.03216 8.38347C7.11977 8.50516 7.43275 8.63464 7.84065 8.63464C8.24855 8.63464 8.56177 8.50516 8.64939 8.38347C8.69514 8.31995 8.76864 8.28223 8.84701 8.28223H9.11424C9.89864 8.28223 10.537 8.9206 10.537 9.705V12.7324C10.537 12.8667 10.4282 12.9757 10.2936 12.9757Z" fill="white"/>
<path d="M8.9558 8.76898V7.26898H8.35571L7.9212 7.68288L8.9558 8.76898ZM6.72575 8.76898L7.76091 7.68343L7.3263 7.26898H6.72575V8.76898ZM7.03216 8.38347L8.24946 7.50701L8.24928 7.50677L7.03216 8.38347ZM8.64939 8.38347L7.43227 7.50677L7.43209 7.50701L8.64939 8.38347ZM10.2936 12.9757V11.4757C10.9867 11.4757 11.5503 12.0375 11.5503 12.7324H10.0503H8.55026C8.55026 13.6963 9.33184 14.4757 10.2936 14.4757V12.9757ZM10.0503 12.7324H11.5503V9.705H10.0503H8.55026V12.7324H10.0503ZM10.0503 9.705H11.5503C11.5503 8.36038 10.4589 7.26898 9.11424 7.26898V8.76898V10.269C8.80201 10.269 8.55026 10.0172 8.55026 9.705H10.0503ZM9.11424 8.76898V7.26898H8.9558V8.76898V10.269H9.11424V8.76898ZM8.9558 8.76898L7.9212 7.68288C7.96915 7.63721 8.00779 7.61354 8.02507 7.60399C8.04279 7.5942 8.04737 7.59407 8.03487 7.59804C8.02284 7.60186 7.99975 7.60794 7.96529 7.61297C7.93111 7.61796 7.88922 7.62139 7.84065 7.62139V9.12139V10.6214C8.52686 10.6214 9.37703 10.4394 9.9904 9.85508L8.9558 8.76898ZM7.84065 9.12139V7.62139C7.79208 7.62139 7.75019 7.61796 7.71602 7.61297C7.68157 7.60795 7.65851 7.60186 7.64653 7.59806C7.63408 7.5941 7.63874 7.59426 7.65658 7.60413C7.67397 7.61374 7.71279 7.63754 7.76091 7.68343L6.72575 8.76898L5.69058 9.85453C6.304 10.4395 7.15473 10.6214 7.84065 10.6214V9.12139ZM6.72575 8.76898V7.26898H6.56731V8.76898V10.269H6.72575V8.76898ZM6.56731 8.76898V7.26898C5.22268 7.26898 4.13128 8.36038 4.13128 9.705H5.63128H7.13128C7.13128 10.0172 6.87953 10.269 6.56731 10.269V8.76898ZM5.63128 9.705H4.13128V11.6961H5.63128H7.13128V9.705H5.63128ZM5.63128 11.6961H4.13128C4.13128 11.002 4.69382 10.4394 5.38791 10.4394V11.9394V13.4394C6.35068 13.4394 7.13128 12.6588 7.13128 11.6961H5.63128ZM5.38791 11.9394V10.4394C6.08199 10.4394 6.64453 11.002 6.64453 11.6961H5.14453H3.64453C3.64453 12.6588 4.42514 13.4394 5.38791 13.4394V11.9394ZM5.14453 11.6961H6.64453V9.705H5.14453H3.64453V11.6961H5.14453ZM5.14453 9.705H6.64453C6.64453 9.72803 6.63354 9.74901 6.62243 9.76012C6.61132 9.77124 6.59033 9.78223 6.56731 9.78223V8.28223V6.78223C4.95448 6.78223 3.64453 8.09217 3.64453 9.705H5.14453ZM6.56731 8.28223V9.78223H6.83453V8.28223V6.78223H6.56731V8.28223ZM6.83453 8.28223V9.78223C6.42976 9.78223 6.0507 9.58735 5.81503 9.26017L7.03216 8.38347L8.24928 7.50677C7.9221 7.05255 7.39605 6.78223 6.83453 6.78223V8.28223ZM7.03216 8.38347L5.81485 9.25993C6.13593 9.70586 6.60225 9.89638 6.8342 9.9751C7.14007 10.0789 7.48411 10.1346 7.84065 10.1346V8.63464V7.13464C7.78929 7.13464 7.77289 7.12561 7.7984 7.13427C7.81094 7.13853 7.85472 7.15422 7.91822 7.19289C7.95088 7.21277 7.99741 7.24401 8.05079 7.2897C8.10264 7.33408 8.17594 7.40491 8.24946 7.50701L7.03216 8.38347ZM7.84065 8.63464V10.1346C8.19718 10.1346 8.54121 10.0789 8.84704 9.97516C9.07875 9.89655 9.54545 9.7061 9.86669 9.25993L8.64939 8.38347L7.43209 7.50701C7.50569 7.40479 7.57909 7.33391 7.63095 7.28952C7.68436 7.24382 7.73091 7.21259 7.76355 7.19272C7.82703 7.15409 7.87076 7.13843 7.88321 7.13421C7.90856 7.12561 7.89202 7.13464 7.84065 7.13464V8.63464ZM8.64939 8.38347L9.86651 9.26017C9.63085 9.58735 9.25179 9.78223 8.84701 9.78223V8.28223V6.78223C8.2855 6.78223 7.75944 7.05255 7.43227 7.50677L8.64939 8.38347ZM8.84701 8.28223V9.78223H9.11424V8.28223V6.78223H8.84701V8.28223ZM9.11424 8.28223V9.78223C9.09121 9.78223 9.07023 9.77124 9.05912 9.76012C9.048 9.74901 9.03701 9.72803 9.03701 9.705H10.537H12.037C12.037 8.09218 10.7271 6.78223 9.11424 6.78223V8.28223ZM10.537 9.705H9.03701V12.7324H10.537H12.037V9.705H10.537ZM10.537 12.7324H9.03701C9.03701 12.0393 9.59882 11.4757 10.2936 11.4757V12.9757V14.4757C11.2576 14.4757 12.037 13.6942 12.037 12.7324H10.537Z" fill="white" mask="url(#path-9-inside-5_1976_35)"/>
<mask id="path-11-inside-6_1976_35" fill="white">
<path d="M17.4427 8.05581C16.6408 8.05581 15.9883 7.40332 15.9883 6.60139V5.98078C15.9883 5.17886 16.6408 4.52637 17.4427 4.52637C18.2446 4.52637 18.8971 5.17886 18.8971 5.98078V6.60139C18.8969 7.40332 18.2446 8.05581 17.4427 8.05581ZM17.4427 5.01312C16.9092 5.01312 16.475 5.4473 16.475 5.98078V6.60139C16.475 7.13487 16.909 7.56905 17.4427 7.56905C17.9764 7.56905 18.4104 7.13512 18.4104 6.60139V5.98078C18.4101 5.4473 17.9762 5.01312 17.4427 5.01312Z"/>
</mask>
<path d="M17.4427 8.05581C16.6408 8.05581 15.9883 7.40332 15.9883 6.60139V5.98078C15.9883 5.17886 16.6408 4.52637 17.4427 4.52637C18.2446 4.52637 18.8971 5.17886 18.8971 5.98078V6.60139C18.8969 7.40332 18.2446 8.05581 17.4427 8.05581ZM17.4427 5.01312C16.9092 5.01312 16.475 5.4473 16.475 5.98078V6.60139C16.475 7.13487 16.909 7.56905 17.4427 7.56905C17.9764 7.56905 18.4104 7.13512 18.4104 6.60139V5.98078C18.4101 5.4473 17.9762 5.01312 17.4427 5.01312Z" fill="white"/>
<path d="M18.8971 6.60139L20.3971 6.60185V6.60139H18.8971ZM18.4104 5.98078L19.9104 5.98078L19.9104 5.9801L18.4104 5.98078ZM17.4427 8.05581V6.55581C17.4473 6.55581 17.4549 6.55704 17.4623 6.56019C17.4688 6.56291 17.4728 6.56606 17.4754 6.56866C17.478 6.57126 17.4812 6.57533 17.4839 6.58175C17.4871 6.58919 17.4883 6.59678 17.4883 6.60139H15.9883H14.4883C14.4883 8.23174 15.8123 9.55581 17.4427 9.55581V8.05581ZM15.9883 6.60139H17.4883V5.98078H15.9883H14.4883V6.60139H15.9883ZM15.9883 5.98078H17.4883C17.4883 5.98539 17.4871 5.99298 17.4839 6.00042C17.4812 6.00684 17.478 6.01092 17.4754 6.01351C17.4728 6.01611 17.4688 6.01926 17.4623 6.02198C17.4549 6.02514 17.4473 6.02637 17.4427 6.02637V4.52637V3.02637C15.8123 3.02637 14.4883 4.35043 14.4883 5.98078H15.9883ZM17.4427 4.52637V6.02637C17.4381 6.02637 17.4305 6.02514 17.4231 6.02198C17.4166 6.01926 17.4126 6.01611 17.41 6.01351C17.4074 6.01092 17.4042 6.00684 17.4015 6.00042C17.3983 5.99298 17.3971 5.98539 17.3971 5.98078H18.8971H20.3971C20.3971 4.35043 19.073 3.02637 17.4427 3.02637V4.52637ZM18.8971 5.98078H17.3971V6.60139H18.8971H20.3971V5.98078H18.8971ZM18.8971 6.60139L17.3971 6.60094C17.3971 6.59647 17.3983 6.58902 17.4014 6.58168C17.4041 6.57535 17.4072 6.57132 17.4098 6.56872C17.4124 6.56613 17.4165 6.56295 17.423 6.56021C17.4305 6.55704 17.4381 6.55581 17.4427 6.55581V8.05581V9.55581C19.0735 9.55581 20.3966 8.23143 20.3971 6.60185L18.8971 6.60139ZM17.4427 5.01312V3.51312C16.0808 3.51312 14.975 4.61888 14.975 5.98078H16.475H17.975C17.975 6.27573 17.7376 6.51312 17.4427 6.51312V5.01312ZM16.475 5.98078H14.975V6.60139H16.475H17.975V5.98078H16.475ZM16.475 6.60139H14.975C14.975 7.96305 16.0803 9.06905 17.4427 9.06905V7.56905V6.06905C17.7376 6.06905 17.975 6.30669 17.975 6.60139H16.475ZM17.4427 7.56905V9.06905C18.8048 9.06905 19.9104 7.96354 19.9104 6.60139H18.4104H16.9104C16.9104 6.30669 17.148 6.06905 17.4427 6.06905V7.56905ZM18.4104 6.60139H19.9104V5.98078H18.4104H16.9104V6.60139H18.4104ZM18.4104 5.98078L19.9104 5.9801C19.9097 4.61935 18.8052 3.51312 17.4427 3.51312V5.01312V6.51312C17.1471 6.51312 16.9105 6.27525 16.9104 5.98147L18.4104 5.98078Z" fill="white" mask="url(#path-11-inside-6_1976_35)"/>
<mask id="path-13-inside-7_1976_35" fill="white">
<path d="M14.9856 12.5478C14.851 12.5478 14.7422 12.4388 14.7422 12.3045V9.6884C14.7422 8.904 15.3803 8.26562 16.165 8.26562H16.4324C16.5108 8.26562 16.5843 8.30335 16.6301 8.36687C16.7177 8.48856 17.0309 8.61803 17.4388 8.61803C17.8467 8.61803 18.1597 8.48856 18.2473 8.36687C18.293 8.30335 18.3663 8.26562 18.4449 8.26562H18.7124C19.497 8.26562 20.1352 8.904 20.1352 9.6884V11.8824C20.1352 12.0168 20.0264 12.1258 19.8918 12.1258C19.7572 12.1258 19.6484 12.0168 19.6484 11.8824V9.6884C19.6484 9.1722 19.2283 8.75238 18.7124 8.75238H18.5539C18.3232 8.97239 17.9114 9.10479 17.439 9.10479C16.9664 9.10479 16.5549 8.97239 16.3239 8.75238H16.1655C15.6495 8.75238 15.2294 9.1722 15.2294 9.6884V12.3042C15.2289 12.4388 15.1199 12.5478 14.9856 12.5478Z"/>
</mask>
<path d="M14.9856 12.5478C14.851 12.5478 14.7422 12.4388 14.7422 12.3045V9.6884C14.7422 8.904 15.3803 8.26562 16.165 8.26562H16.4324C16.5108 8.26562 16.5843 8.30335 16.6301 8.36687C16.7177 8.48856 17.0309 8.61803 17.4388 8.61803C17.8467 8.61803 18.1597 8.48856 18.2473 8.36687C18.293 8.30335 18.3663 8.26562 18.4449 8.26562H18.7124C19.497 8.26562 20.1352 8.904 20.1352 9.6884V11.8824C20.1352 12.0168 20.0264 12.1258 19.8918 12.1258C19.7572 12.1258 19.6484 12.0168 19.6484 11.8824V9.6884C19.6484 9.1722 19.2283 8.75238 18.7124 8.75238H18.5539C18.3232 8.97239 17.9114 9.10479 17.439 9.10479C16.9664 9.10479 16.5549 8.97239 16.3239 8.75238H16.1655C15.6495 8.75238 15.2294 9.1722 15.2294 9.6884V12.3042C15.2289 12.4388 15.1199 12.5478 14.9856 12.5478Z" fill="white"/>
<path d="M16.6301 8.36687L17.8474 7.49041L17.8472 7.49017L16.6301 8.36687ZM18.2473 8.36687L17.0302 7.49017L17.03 7.49041L18.2473 8.36687ZM18.5539 8.75238V7.25238H17.9534L17.5188 7.66682L18.5539 8.75238ZM16.3239 8.75238L17.3585 7.66628L16.924 7.25238H16.3239V8.75238ZM15.2294 12.3042L16.7294 12.3096V12.3042H15.2294ZM14.9856 12.5478V11.0478C15.6804 11.0478 16.2422 11.6113 16.2422 12.3045H14.7422H13.2422C13.2422 13.2662 14.0216 14.0478 14.9856 14.0478V12.5478ZM14.7422 12.3045H16.2422V9.6884H14.7422H13.2422V12.3045H14.7422ZM14.7422 9.6884H16.2422C16.2422 9.71126 16.2313 9.73225 16.2201 9.74346C16.2088 9.75469 16.1878 9.76562 16.165 9.76562V8.26562V6.76562C14.5517 6.76562 13.2422 8.07574 13.2422 9.6884H14.7422ZM16.165 8.26562V9.76562H16.4324V8.26562V6.76562H16.165V8.26562ZM16.4324 8.26562V9.76562C16.0277 9.76562 15.6486 9.57075 15.4129 9.24357L16.6301 8.36687L17.8472 7.49017C17.52 7.03595 16.9939 6.76562 16.4324 6.76562V8.26562ZM16.6301 8.36687L15.4128 9.24333C15.734 9.6895 16.2007 9.87995 16.4324 9.95856C16.7382 10.0623 17.0823 10.118 17.4388 10.118V8.61803V7.11803C17.3874 7.11803 17.3709 7.10901 17.3962 7.11761C17.4087 7.12183 17.4524 7.13749 17.5159 7.17612C17.5485 7.19599 17.5951 7.22722 17.6485 7.27292C17.7004 7.31731 17.7738 7.38819 17.8474 7.49041L16.6301 8.36687ZM17.4388 8.61803V10.118C17.7953 10.118 18.1394 10.0623 18.4453 9.9585C18.6772 9.87977 19.1435 9.68926 19.4646 9.24333L18.2473 8.36687L17.03 7.49041C17.1035 7.38831 17.1768 7.31748 17.2287 7.2731C17.282 7.22741 17.3286 7.19617 17.3612 7.17629C17.4247 7.13761 17.4685 7.12193 17.481 7.11767C17.5066 7.10901 17.4902 7.11803 17.4388 7.11803V8.61803ZM18.2473 8.36687L19.4644 9.24357C19.2292 9.57009 18.8503 9.76562 18.4449 9.76562V8.26562V6.76562C17.8823 6.76562 17.3569 7.03661 17.0302 7.49017L18.2473 8.36687ZM18.4449 8.26562V9.76562H18.7124V8.26562V6.76562H18.4449V8.26562ZM18.7124 8.26562V9.76562C18.6896 9.76562 18.6685 9.75469 18.6573 9.74346C18.6461 9.73225 18.6352 9.71126 18.6352 9.6884H20.1352H21.6352C21.6352 8.07574 20.3256 6.76562 18.7124 6.76562V8.26562ZM20.1352 9.6884H18.6352V11.8824H20.1352H21.6352V9.6884H20.1352ZM20.1352 11.8824H18.6352C18.6352 11.1893 19.197 10.6258 19.8918 10.6258V12.1258V13.6258C20.8558 13.6258 21.6352 12.8442 21.6352 11.8824H20.1352ZM19.8918 12.1258V10.6258C20.5866 10.6258 21.1484 11.1893 21.1484 11.8824H19.6484H18.1484C18.1484 12.8442 18.9278 13.6258 19.8918 13.6258V12.1258ZM19.6484 11.8824H21.1484V9.6884H19.6484H18.1484V11.8824H19.6484ZM19.6484 9.6884H21.1484C21.1484 8.34352 20.0565 7.25238 18.7124 7.25238V8.75238V10.2524C18.4002 10.2524 18.1484 10.0009 18.1484 9.6884H19.6484ZM18.7124 8.75238V7.25238H18.5539V8.75238V10.2524H18.7124V8.75238ZM18.5539 8.75238L17.5188 7.66682C17.567 7.62085 17.6059 7.59704 17.6232 7.58745C17.641 7.5776 17.6456 7.57746 17.6331 7.58144C17.6211 7.58526 17.598 7.59135 17.5635 7.59637C17.5294 7.60136 17.4875 7.60479 17.439 7.60479V9.10479V10.6048C18.1246 10.6048 18.9756 10.4229 19.5891 9.83793L18.5539 8.75238ZM17.439 9.10479V7.60479C17.3905 7.60479 17.3486 7.60136 17.3144 7.59637C17.2799 7.59134 17.2568 7.58526 17.2448 7.58144C17.2323 7.57747 17.2369 7.5776 17.2546 7.58739C17.2719 7.59694 17.3105 7.62061 17.3585 7.66628L16.3239 8.75238L15.2893 9.83848C15.9027 10.4228 16.7528 10.6048 17.439 10.6048V9.10479ZM16.3239 8.75238V7.25238H16.1655V8.75238V10.2524H16.3239V8.75238ZM16.1655 8.75238V7.25238C14.8213 7.25238 13.7294 8.34352 13.7294 9.6884H15.2294H16.7294C16.7294 10.0009 16.4777 10.2524 16.1655 10.2524V8.75238ZM15.2294 9.6884H13.7294V12.3042H15.2294H16.7294V9.6884H15.2294ZM15.2294 12.3042L13.7294 12.2988C13.7319 11.6112 14.2895 11.0478 14.9856 11.0478V12.5478V14.0478C15.9503 14.0478 16.726 13.2664 16.7294 12.3096L15.2294 12.3042Z" fill="white" mask="url(#path-13-inside-7_1976_35)"/>
<mask id="path-15-inside-8_1976_35" fill="white">
<path d="M12.6224 5.52944C11.8205 5.52944 11.168 4.87695 11.168 4.07502V3.45442C11.168 2.65249 11.8205 2 12.6224 2C13.4243 2 14.0768 2.65249 14.0768 3.45442V4.07502C14.0766 4.87695 13.4243 5.52944 12.6224 5.52944ZM12.6224 2.48675C12.0889 2.48675 11.6547 2.92094 11.6547 3.45442V4.07502C11.6547 4.6085 12.0887 5.04269 12.6224 5.04269C13.1561 5.04269 13.59 4.6085 13.59 4.07502V3.45442C13.5898 2.92094 13.1559 2.48675 12.6224 2.48675Z"/>
</mask>
<path d="M12.6224 5.52944C11.8205 5.52944 11.168 4.87695 11.168 4.07502V3.45442C11.168 2.65249 11.8205 2 12.6224 2C13.4243 2 14.0768 2.65249 14.0768 3.45442V4.07502C14.0766 4.87695 13.4243 5.52944 12.6224 5.52944ZM12.6224 2.48675C12.0889 2.48675 11.6547 2.92094 11.6547 3.45442V4.07502C11.6547 4.6085 12.0887 5.04269 12.6224 5.04269C13.1561 5.04269 13.59 4.6085 13.59 4.07502V3.45442C13.5898 2.92094 13.1559 2.48675 12.6224 2.48675Z" fill="white"/>
<path d="M14.0768 4.07502L15.5768 4.07548V4.07502H14.0768ZM13.59 3.45442L15.09 3.45442L15.09 3.45373L13.59 3.45442ZM12.6224 5.52944V4.02944C12.627 4.02944 12.6346 4.03067 12.642 4.03382C12.6484 4.03654 12.6525 4.0397 12.6551 4.04229C12.6577 4.04489 12.6609 4.04896 12.6636 4.05539C12.6667 4.06283 12.668 4.07041 12.668 4.07502H11.168H9.66797C9.66797 5.70538 10.992 7.02944 12.6224 7.02944V5.52944ZM11.168 4.07502H12.668V3.45442H11.168H9.66797V4.07502H11.168ZM11.168 3.45442H12.668C12.668 3.45903 12.6667 3.46661 12.6636 3.47406C12.6609 3.48048 12.6577 3.48455 12.6551 3.48715C12.6525 3.48974 12.6484 3.4929 12.642 3.49562C12.6346 3.49877 12.627 3.5 12.6224 3.5V2V0.5C10.992 0.5 9.66797 1.82406 9.66797 3.45442H11.168ZM12.6224 2V3.5C12.6178 3.5 12.6102 3.49877 12.6027 3.49562C12.5963 3.4929 12.5923 3.48974 12.5897 3.48715C12.5871 3.48455 12.5839 3.48048 12.5812 3.47405C12.578 3.46661 12.5768 3.45903 12.5768 3.45442H14.0768H15.5768C15.5768 1.82406 14.2527 0.5 12.6224 0.5V2ZM14.0768 3.45442H12.5768V4.07502H14.0768H15.5768V3.45442H14.0768ZM14.0768 4.07502L12.5768 4.07457C12.5768 4.07011 12.578 4.06265 12.5811 4.05531C12.5838 4.04898 12.5869 4.04495 12.5895 4.04236C12.5921 4.03976 12.5962 4.03659 12.6027 4.03385C12.6101 4.03067 12.6178 4.02944 12.6224 4.02944V5.52944V7.02944C14.2532 7.02944 15.5763 5.70506 15.5768 4.07548L14.0768 4.07502ZM12.6224 2.48675V0.986752C11.2605 0.986752 10.1547 2.09251 10.1547 3.45442H11.6547H13.1547C13.1547 3.74936 12.9173 3.98675 12.6224 3.98675V2.48675ZM11.6547 3.45442H10.1547V4.07502H11.6547H13.1547V3.45442H11.6547ZM11.6547 4.07502H10.1547C10.1547 5.43669 11.26 6.54269 12.6224 6.54269V5.04269V3.54269C12.9173 3.54269 13.1547 3.78032 13.1547 4.07502H11.6547ZM12.6224 5.04269V6.54269C13.9848 6.54269 15.09 5.43669 15.09 4.07502H13.59H12.09C12.09 3.78032 12.3274 3.54269 12.6224 3.54269V5.04269ZM13.59 4.07502H15.09V3.45442H13.59H12.09V4.07502H13.59ZM13.59 3.45442L15.09 3.45373C15.0894 2.09298 13.9849 0.986752 12.6224 0.986752V2.48675V3.98675C12.3268 3.98675 12.0902 3.74889 12.09 3.4551L13.59 3.45442Z" fill="white" mask="url(#path-15-inside-8_1976_35)"/>
<mask id="path-17-inside-9_1976_35" fill="white">
<path d="M15.0749 7.40443C14.9403 7.40443 14.8315 7.2954 14.8315 7.16106C14.8315 6.64486 14.4114 6.22503 13.8955 6.22503H13.7373C13.5063 6.44505 13.0948 6.57744 12.6221 6.57744C12.1495 6.57744 11.738 6.44505 11.5072 6.22503H11.3486C10.8324 6.22503 10.4125 6.64486 10.4125 7.16106C10.4125 7.2954 10.3035 7.40443 10.1692 7.40443C10.0348 7.40443 9.92578 7.2954 9.92578 7.16106C9.92578 6.37666 10.5642 5.73828 11.3486 5.73828H11.6158C11.6942 5.73828 11.7677 5.776 11.8134 5.83953C11.901 5.96121 12.214 6.09069 12.6219 6.09069C13.0298 6.09069 13.343 5.96121 13.4306 5.83953C13.4764 5.776 13.5497 5.73828 13.6283 5.73828H13.8955C14.6801 5.73828 15.3183 6.37666 15.3183 7.16106C15.3183 7.2954 15.2095 7.40443 15.0749 7.40443Z"/>
</mask>
<path d="M15.0749 7.40443C14.9403 7.40443 14.8315 7.2954 14.8315 7.16106C14.8315 6.64486 14.4114 6.22503 13.8955 6.22503H13.7373C13.5063 6.44505 13.0948 6.57744 12.6221 6.57744C12.1495 6.57744 11.738 6.44505 11.5072 6.22503H11.3486C10.8324 6.22503 10.4125 6.64486 10.4125 7.16106C10.4125 7.2954 10.3035 7.40443 10.1692 7.40443C10.0348 7.40443 9.92578 7.2954 9.92578 7.16106C9.92578 6.37666 10.5642 5.73828 11.3486 5.73828H11.6158C11.6942 5.73828 11.7677 5.776 11.8134 5.83953C11.901 5.96121 12.214 6.09069 12.6219 6.09069C13.0298 6.09069 13.343 5.96121 13.4306 5.83953C13.4764 5.776 13.5497 5.73828 13.6283 5.73828H13.8955C14.6801 5.73828 15.3183 6.37666 15.3183 7.16106C15.3183 7.2954 15.2095 7.40443 15.0749 7.40443Z" fill="white"/>
<path d="M13.7373 6.22503V4.72503H13.1372L12.7027 5.13894L13.7373 6.22503ZM11.5072 6.22503L12.5424 5.13948L12.1078 4.72503H11.5072V6.22503ZM11.8134 5.83953L13.0307 4.96307L13.0305 4.96282L11.8134 5.83953ZM13.4306 5.83953L12.2135 4.96282L12.2133 4.96307L13.4306 5.83953ZM15.3183 7.16106L13.8183 7.16106L15.3183 7.16106ZM15.0749 7.40443V5.90443C15.7697 5.90443 16.3315 6.46795 16.3315 7.16106H14.8315H13.3315C13.3315 8.12285 14.1109 8.90443 15.0749 8.90443V7.40443ZM14.8315 7.16106H16.3315C16.3315 5.81618 15.2396 4.72503 13.8955 4.72503V6.22503V7.72503C13.5833 7.72503 13.3315 7.47354 13.3315 7.16106H14.8315ZM13.8955 6.22503V4.72503H13.7373V6.22503V7.72503H13.8955V6.22503ZM13.7373 6.22503L12.7027 5.13894C12.7506 5.09326 12.7893 5.06959 12.8066 5.06005C12.8243 5.05025 12.8289 5.05012 12.8164 5.05409C12.8043 5.05791 12.7812 5.064 12.7468 5.06903C12.7126 5.07401 12.6707 5.07744 12.6221 5.07744V6.57744V8.07744C13.3083 8.07744 14.1585 7.89541 14.7719 7.31113L13.7373 6.22503ZM12.6221 6.57744V5.07744C12.5736 5.07744 12.5317 5.07401 12.4975 5.06903C12.4631 5.064 12.44 5.05792 12.428 5.05411C12.4156 5.05016 12.4202 5.05032 12.4381 5.06018C12.4555 5.06979 12.4943 5.09359 12.5424 5.13948L11.5072 6.22503L10.4721 7.31059C11.0855 7.89554 11.9362 8.07744 12.6221 8.07744V6.57744ZM11.5072 6.22503V4.72503H11.3486V6.22503V7.72503H11.5072V6.22503ZM11.3486 6.22503V4.72503C10.0039 4.72503 8.91253 5.81643 8.91253 7.16106H10.4125H11.9125C11.9125 7.47328 11.6608 7.72503 11.3486 7.72503V6.22503ZM10.4125 7.16106H8.91253C8.91253 6.46697 9.47507 5.90443 10.1692 5.90443V7.40443V8.90443C11.1319 8.90443 11.9125 8.12383 11.9125 7.16106H10.4125ZM10.1692 7.40443V5.90443C10.8632 5.90443 11.4258 6.46697 11.4258 7.16106H9.92578H8.42578C8.42578 8.12383 9.20639 8.90443 10.1692 8.90443V7.40443ZM9.92578 7.16106H11.4258C11.4258 7.18408 11.4148 7.20507 11.4037 7.21618C11.3926 7.22729 11.3716 7.23828 11.3486 7.23828V5.73828V4.23828C9.73573 4.23828 8.42578 5.54823 8.42578 7.16106H9.92578ZM11.3486 5.73828V7.23828H11.6158V5.73828V4.23828H11.3486V5.73828ZM11.6158 5.73828V7.23828C11.211 7.23828 10.8319 7.04341 10.5963 6.71623L11.8134 5.83953L13.0305 4.96282C12.7034 4.5086 12.1773 4.23828 11.6158 4.23828V5.73828ZM11.8134 5.83953L10.5961 6.71598C10.9172 7.16192 11.3835 7.35243 11.6154 7.43116C11.9213 7.53497 12.2654 7.59069 12.6219 7.59069V6.09069V4.59069C12.5705 4.59069 12.5541 4.58167 12.5796 4.59033C12.5922 4.59458 12.636 4.61027 12.6995 4.64894C12.7321 4.66883 12.7787 4.70006 12.832 4.74576C12.8839 4.79014 12.9572 4.86096 13.0307 4.96307L11.8134 5.83953ZM12.6219 6.09069V7.59069C12.9784 7.59069 13.3225 7.53498 13.6283 7.43122C13.86 7.35261 14.3267 7.16215 14.6479 6.71598L13.4306 5.83953L12.2133 4.96307C12.2869 4.86084 12.3603 4.78996 12.4122 4.74558C12.4656 4.69987 12.5122 4.66865 12.5448 4.64878C12.6083 4.61014 12.652 4.59449 12.6645 4.59026C12.6898 4.58166 12.6733 4.59069 12.6219 4.59069V6.09069ZM13.4306 5.83953L14.6478 6.71623C14.4126 7.04274 14.0336 7.23828 13.6283 7.23828V5.73828V4.23828C13.0657 4.23828 12.5402 4.50927 12.2135 4.96282L13.4306 5.83953ZM13.6283 5.73828V7.23828H13.8955V5.73828V4.23828H13.6283V5.73828ZM13.8955 5.73828V7.23828C13.8727 7.23828 13.8516 7.22735 13.8404 7.21612C13.8292 7.20491 13.8183 7.18391 13.8183 7.16106H15.3183H16.8183C16.8183 5.5484 15.5087 4.23828 13.8955 4.23828V5.73828ZM15.3183 7.16106L13.8183 7.16106C13.8183 6.46795 14.3801 5.90443 15.0749 5.90443V7.40443V8.90443C16.0389 8.90443 16.8183 8.12285 16.8183 7.16106L15.3183 7.16106Z" fill="white" mask="url(#path-17-inside-9_1976_35)"/>
</svg>
