<svg width="24" height="24" viewBox="0 0 24 24" fill="none" xmlns="http://www.w3.org/2000/svg">
<g clip-path="url(#clip0_1060_48)">
<path d="M11.4187 0.0138795C5.08035 0.315677 0.0784833 5.59432 0.0977115 11.9399C0.103566 13.8726 0.570152 15.6968 1.39324 17.3086L0.12951 23.4429C0.0611491 23.7747 0.360421 24.0653 0.690056 23.9872L6.70092 22.5631C8.24521 23.3323 9.97976 23.7767 11.8155 23.8047C18.2939 23.9036 23.6958 18.7596 23.8977 12.2836C24.1142 5.34171 18.3849 -0.317879 11.4187 0.0138795ZM18.591 18.4934C16.8306 20.2537 14.4901 21.2231 12.0007 21.2231C10.543 21.2231 9.14744 20.8961 7.8526 20.2511L7.01552 19.8341L3.33024 20.7073L4.10597 16.9416L3.69356 16.134C3.02138 14.8176 2.68055 13.394 2.68055 11.903C2.68055 9.4135 3.65 7.07305 5.41033 5.31267C7.15494 3.56806 9.53361 2.58283 12.0009 2.58283C14.4903 2.58289 16.8307 3.55233 18.591 5.31261C20.3514 7.07294 21.3208 9.41339 21.3209 11.9028C21.3208 14.3701 20.3356 16.7488 18.591 18.4934Z" fill="white"/>
<path d="M17.778 14.4839L15.4724 13.8219C15.1693 13.7349 14.8428 13.8209 14.622 14.0459L14.0582 14.6203C13.8204 14.8626 13.4597 14.9404 13.145 14.8131C12.0544 14.3717 9.76005 12.3318 9.17413 11.3114C9.0051 11.0171 9.03305 10.6491 9.2406 10.3806L9.73284 9.74372C9.9257 9.49422 9.96639 9.15913 9.83886 8.8707L8.86883 6.67679C8.63649 6.15131 7.96499 5.99835 7.5263 6.36937C6.88282 6.91361 6.11931 7.74066 6.0265 8.6569C5.86286 10.2723 6.55565 12.3087 9.17545 14.7538C12.202 17.5786 14.6257 17.9518 16.2037 17.5696C17.0988 17.3528 17.8141 16.4837 18.2655 15.772C18.5733 15.2869 18.3303 14.6425 17.778 14.4839Z" fill="white"/>
</g>
<defs>
<clipPath id="clip0_1060_48">
<rect width="24" height="24" fill="white"/>
</clipPath>
</defs>
</svg>
